<svg width="20" height="20" viewBox="0 0 20 20" fill="none" xmlns="http://www.w3.org/2000/svg">
<g clip-path="url(#clip0_1_2233)">
<path fill-rule="evenodd" clip-rule="evenodd" d="M14.2817 0.315101C14.5881 0.00760655 15.0499 -0.0845474 15.4509 0.0817439L18.4906 1.34213C19.035 1.56789 19.2949 2.191 19.0721 2.7367L17.832 5.77554C17.6681 6.17704 17.2783 6.44017 16.8447 6.4421C16.411 6.44404 16.019 6.18439 15.8516 5.78436L15.3609 4.61194L3.02118 9.88601C2.47707 10.1186 1.84744 9.86601 1.61488 9.32189C1.38232 8.77777 1.63488 8.14816 2.17901 7.91559L14.5336 2.63517L14.0522 1.48513C13.8846 1.08464 13.9752 0.622597 14.2817 0.315101ZM18.2143 7.8279C18.5931 7.8279 18.9566 7.9784 19.2244 8.24631C19.4923 8.51423 19.6429 8.87759 19.6429 9.25647V19.2564C19.6429 19.651 19.323 19.9707 18.9286 19.9707H15.3571C14.9627 19.9707 14.6429 19.651 14.6429 19.2564V9.25647C14.6429 8.87759 14.7934 8.51423 15.0613 8.24631C15.3291 7.9784 15.6926 7.8279 16.0714 7.8279H18.2143ZM12.0816 10.3892C11.8137 10.1213 11.4503 9.97076 11.0714 9.97076H8.92857C8.54968 9.97076 8.18633 10.1213 7.91841 10.3892C7.65051 10.6571 7.5 11.0204 7.5 11.3993V19.2564C7.5 19.651 7.8198 19.9707 8.21428 19.9707H11.7857C12.1802 19.9707 12.5 19.651 12.5 19.2564V11.3993C12.5 11.0204 12.3495 10.6571 12.0816 10.3892ZM3.92857 12.1136C4.30745 12.1136 4.67081 12.2641 4.93872 12.532C5.20662 12.7999 5.35714 13.1633 5.35714 13.5422V19.2564C5.35714 19.651 5.03734 19.9707 4.64285 19.9707H1.07143C0.676937 19.9707 0.35714 19.651 0.35714 19.2564V13.5422C0.35714 13.1633 0.507648 12.7999 0.775558 12.532C1.04347 12.2641 1.40683 12.1136 1.78571 12.1136H3.92857Z" fill="white"/>
</g>
<defs>
<clipPath id="clip0_1_2233">
<rect width="20" height="20" fill="white"/>
</clipPath>
</defs>
</svg>
