<svg width="28" height="" viewBox="0 0 32 32" fill="none" xmlns="http://www.w3.org/2000/svg">
  <g filter="url(#filter0_d_1296_1362)">
    <path
      d="M12.65 20.9595L5 23.1015L7.142 15.4515L21.15 1.51149C21.3083 1.34957 21.4974 1.22092 21.7061 1.13308C21.9149 1.04525 22.139 1 22.3655 1C22.592 1 22.8161 1.04525 23.0249 1.13308C23.2336 1.22092 23.4227 1.34957 23.581 1.51149L26.59 4.53749C26.7493 4.69553 26.8758 4.88355 26.9621 5.09071C27.0484 5.29787 27.0929 5.52007 27.0929 5.74449C27.0929 5.96891 27.0484 6.19111 26.9621 6.39827C26.8758 6.60543 26.7493 6.79345 26.59 6.95149L12.65 20.9595Z"
      stroke="white"
      stroke-linecap="round"
      stroke-linejoin="round"
      shape-rendering="crispEdges"
    />
    <path
      d="M12.65 20.9595L5 23.1015L7.142 15.4515L21.15 1.51149C21.3083 1.34957 21.4974 1.22092 21.7061 1.13308C21.9149 1.04525 22.139 1 22.3655 1C22.592 1 22.8161 1.04525 23.0249 1.13308C23.2336 1.22092 23.4227 1.34957 23.581 1.51149L26.59 4.53749C26.7493 4.69553 26.8758 4.88355 26.9621 5.09071C27.0484 5.29787 27.0929 5.52007 27.0929 5.74449C27.0929 5.96891 27.0484 6.19111 26.9621 6.39827C26.8758 6.60543 26.7493 6.79345 26.59 6.95149L12.65 20.9595Z"
      stroke="white"
      stroke-linecap="round"
      stroke-linejoin="round"
      shape-rendering="crispEdges"
    />
  </g>
  <defs>
    <filter
      id="filter0_d_1296_1362"
      x="0.5"
      y="0.5"
      width="31.0929"
      height="31.1016"
      filterUnits="userSpaceOnUse"
      color-interpolation-filters="sRGB"
    >
      <feFlood flood-opacity="0" result="BackgroundImageFix" />
      <feColorMatrix
        in="SourceAlpha"
        type="matrix"
        values="0 0 0 0 0 0 0 0 0 0 0 0 0 0 0 0 0 0 127 0"
        result="hardAlpha"
      />
      <feOffset dy="4" />
      <feGaussianBlur stdDeviation="2" />
      <feComposite in2="hardAlpha" operator="out" />
      <feColorMatrix
        type="matrix"
        values="0 0 0 0 0 0 0 0 0 0 0 0 0 0 0 0 0 0 0.25 0"
      />
      <feBlend
        mode="normal"
        in2="BackgroundImageFix"
        result="effect1_dropShadow_1296_1362"
      />
      <feBlend
        mode="normal"
        in="SourceGraphic"
        in2="effect1_dropShadow_1296_1362"
        result="shape"
      />
    </filter>
  </defs>
</svg>