<svg width="20" height="18" viewBox="0 0 20 18" fill="none" xmlns="http://www.w3.org/2000/svg">
  <path d="M9.57918 1.26159C9.75132 0.912803 10.2487 0.912803 10.4208 1.26159L12.6492 5.77669C12.7175 5.9152 12.8496 6.0112 13.0025 6.03341L17.9852 6.75744C18.3701 6.81337 18.5238 7.28639 18.2453 7.55788L14.6398 11.0724C14.5292 11.1802 14.4787 11.3355 14.5048 11.4878L15.3559 16.4504C15.4217 16.8337 15.0193 17.126 14.675 16.9451L10.2184 14.602C10.0817 14.5302 9.91834 14.5302 9.78163 14.602L5.32495 16.9451C4.98068 17.126 4.5783 16.8337 4.64405 16.4504L5.4952 11.4878C5.52131 11.3355 5.47084 11.1802 5.36024 11.0724L1.75472 7.55788C1.47619 7.28639 1.62989 6.81337 2.0148 6.75744L6.99751 6.03341C7.15036 6.0112 7.28249 5.9152 7.35085 5.77669L9.57918 1.26159Z" 
    fill="yellow" stroke="yellow" stroke-width="2" stroke-linejoin="round"/>
</svg>