<svg width="24" height="24" viewBox="0 0 17 18" fill="none" xmlns="http://www.w3.org/2000/svg">
<g clip-path="url(#clip0_1062_992)">
<path fill-rule="evenodd" clip-rule="evenodd" d="M3.33921 10.0197C4.07688 10.0197 4.67488 9.37888 4.67488 8.58835C4.67488 7.79783 4.07688 7.15698 3.33921 7.15698C2.60154 7.15698 2.00354 7.79783 2.00354 8.58835C2.00354 9.37888 2.60154 10.0197 3.33921 10.0197Z" fill="#808080"/>
<path fill-rule="evenodd" clip-rule="evenodd" d="M8.01404 10.0197C8.75171 10.0197 9.34971 9.37888 9.34971 8.58835C9.34971 7.79783 8.75171 7.15698 8.01404 7.15698C7.27637 7.15698 6.67838 7.79783 6.67838 8.58835C6.67838 9.37888 7.27637 10.0197 8.01404 10.0197Z" fill="#808080"/>
<path fill-rule="evenodd" clip-rule="evenodd" d="M12.6889 10.0197C13.4265 10.0197 14.0245 9.37888 14.0245 8.58835C14.0245 7.79783 13.4265 7.15698 12.6889 7.15698C11.9512 7.15698 11.3532 7.79783 11.3532 8.58835C11.3532 9.37888 11.9512 10.0197 12.6889 10.0197Z" fill="#808080"/>
</g>
<defs>
<clipPath id="clip0_1062_992">
<rect width="16.028" height="17.1765" fill="white"/>
</clipPath>
</defs>
</svg>
