<svg width="21" height="21" viewBox="0 0 21 21" fill="none" xmlns="http://www.w3.org/2000/svg">
<path d="M11 13.1511L6.71429 13.9226L7.42858 9.57971L15.6143 1.42257C15.7471 1.28867 15.9051 1.18239 16.0792 1.10987C16.2533 1.03734 16.44 1 16.6286 1C16.8172 1 17.0039 1.03734 17.178 1.10987C17.3521 1.18239 17.5101 1.28867 17.6429 1.42257L19.1572 2.93685C19.291 3.06966 19.3973 3.22766 19.4699 3.40175C19.5424 3.57583 19.5797 3.76255 19.5797 3.95114C19.5797 4.13973 19.5424 4.32645 19.4699 4.50054C19.3973 4.67462 19.291 4.83262 19.1572 4.96543L11 13.1511Z" stroke="white" stroke-linecap="round" stroke-linejoin="round"/>
<path d="M17.4286 13.8654V18.1511C17.4286 18.53 17.2781 18.8934 17.0102 19.1613C16.7422 19.4292 16.3789 19.5797 16 19.5797H2.42857C2.04969 19.5797 1.68633 19.4292 1.41842 19.1613C1.15051 18.8934 1 18.53 1 18.1511V4.57969C1 4.20081 1.15051 3.83745 1.41842 3.56954C1.68633 3.30163 2.04969 3.15112 2.42857 3.15112H6.71429" stroke="white" stroke-linecap="round" stroke-linejoin="round"/>
</svg>
