<svg width="24" height="24" viewBox="0 0 24 24" fill="none" xmlns="http://www.w3.org/2000/svg">
<path d="M15.0379 12.0026L8.42485 5.38932C8.29842 5.26304 8.23599 5.11196 8.23756 4.93611C8.23928 4.76025 8.30335 4.60918 8.42978 4.48289C8.55606 4.35646 8.70713 4.29325 8.88299 4.29325C9.05885 4.29325 9.20992 4.35646 9.33621 4.48289L15.8869 11.0285C16.0253 11.1669 16.1264 11.3212 16.1901 11.4915C16.2538 11.662 16.2857 11.8323 16.2857 12.0026C16.2857 12.1729 16.2538 12.3432 16.1901 12.5137C16.1264 12.684 16.0253 12.8383 15.8869 12.9767L9.33621 19.5273C9.20992 19.6537 9.05799 19.716 8.88042 19.7143C8.70299 19.7127 8.55113 19.6487 8.42485 19.5223C8.29842 19.396 8.23521 19.245 8.23521 19.0691C8.23521 18.8932 8.29842 18.7422 8.42485 18.6159L15.0379 12.0026Z" fill="white"/>
</svg>
